%
M48
M72
T01C0.02165
T02C0.03200
T03C0.03346
T04C0.03543
T05C0.03937
T06C0.04000
T07C0.05906
T08C0.12500
%
T01
X116000Y61800
X116000Y76800
X182500Y116800
X211000Y106800
X236000Y91800
X201000Y66800
X196000Y76800
X221000Y31800
X221000Y11800
X236000Y136800
X208111Y166800
X201000Y166800
X191000Y161800
X181000Y161800
X161000Y166800
X141889Y171800
X141000Y186800
X146000Y191800
X121000Y181800
X115500Y196800
X106000Y206800
X96000Y196800
X151000Y146800
X156000Y136800
X201000Y181800
X212000Y181800
X211000Y191800
X191000Y191800
X186000Y206800
X201000Y221800
X186000Y231800
X151000Y251800
X93111Y271800
X281000Y151800
X291000Y161800
X361000Y201800
X311000Y291800
X311000Y321800
T02
X306000Y361800
X346000Y361800
X341000Y256800
X341000Y246800
X341000Y236800
X341000Y226800
X341000Y216800
X341000Y206800
X341000Y196800
X341000Y186800
X341000Y176800
X341000Y166800
X341000Y156800
X341000Y146800
X341000Y136800
X341000Y126800
X326000Y111800
X311000Y106800
X301000Y106800
X281000Y101800
X271000Y101800
X251000Y126800
X251000Y136800
X251000Y146800
X251000Y156800
X251000Y166800
X251000Y176800
X251000Y186800
X251000Y196800
X251000Y206800
X251000Y216800
X251000Y226800
X251000Y236800
X251000Y246800
X251000Y256800
X281000Y256800
X281000Y246800
X221000Y246800
X221000Y256800
X221000Y236800
X221000Y226800
X221000Y216800
X221000Y206800
X221000Y196800
X221000Y186800
X221000Y176800
X221000Y166800
X221000Y156800
X221000Y146800
X221000Y136800
X221000Y126800
X201000Y126800
X201000Y136800
X271000Y141800
X281000Y141800
X301000Y146800
X311000Y146800
X326000Y166800
X326000Y176800
X371000Y176800
X371000Y166800
X371000Y156800
X371000Y146800
X371000Y136800
X371000Y126800
X366000Y111800
X386000Y111800
X386000Y121800
X371000Y186800
X371000Y196800
X371000Y206800
X371000Y216800
X371000Y226800
X371000Y236800
X371000Y246800
X371000Y256800
X281000Y191800
X281000Y171800
X161500Y253800
X161500Y293800
X166000Y311800
X126000Y311800
X111000Y296800
X111000Y286800
T03
X85630Y286143
X85630Y266457
T04
X80500Y239643
X80500Y229800
X80500Y219957
T05
X186157Y301800
X205843Y301800
X311157Y331800
X330843Y331800
T06
X286000Y326800
X286000Y336800
X286000Y346800
X286000Y356800
X286000Y366800
X286000Y376800
X256000Y376800
X256000Y366800
X256000Y356800
X256000Y346800
X256000Y336800
X256000Y326800
X256000Y316800
X236000Y326800
X236000Y336800
X211000Y361800
X211000Y371800
X286000Y316800
X326000Y246800
X326000Y236800
X326000Y226800
X326000Y216800
X326000Y206800
X326000Y196800
X326000Y186800
X386000Y236800
X386000Y246800
X386000Y256800
X381000Y86800
X381000Y76800
X391000Y76800
X391000Y86800
X391000Y66800
X391000Y56800
X381000Y56800
X381000Y66800
X361000Y66800
X361000Y56800
X351000Y56800
X351000Y66800
X351000Y76800
X351000Y86800
X361000Y86800
X361000Y76800
X341000Y76800
X341000Y86800
X331000Y86800
X331000Y76800
X321000Y76800
X321000Y86800
X311000Y86800
X311000Y76800
X301000Y76800
X301000Y86800
X291000Y86800
X291000Y76800
X291000Y66800
X291000Y56800
X301000Y56800
X301000Y66800
X311000Y66800
X311000Y56800
X321000Y56800
X321000Y66800
X331000Y66800
X331000Y56800
X341000Y56800
X341000Y66800
X341000Y46800
X341000Y36800
X331000Y36800
X331000Y46800
X321000Y46800
X321000Y36800
X311000Y36800
X311000Y46800
X301000Y46800
X301000Y36800
X291000Y36800
X291000Y46800
X281000Y46800
X281000Y36800
X271000Y36800
X271000Y46800
X271000Y56800
X271000Y66800
X281000Y66800
X281000Y56800
X281000Y76800
X281000Y86800
X271000Y86800
X271000Y76800
X251000Y76800
X251000Y86800
X241000Y86800
X241000Y76800
X241000Y66800
X241000Y56800
X251000Y56800
X251000Y66800
X251000Y46800
X251000Y36800
X241000Y36800
X241000Y46800
X241000Y26800
X241000Y16800
X251000Y16800
X251000Y26800
X271000Y26800
X271000Y16800
X281000Y16800
X281000Y26800
X291000Y26800
X291000Y16800
X301000Y16800
X301000Y26800
X311000Y26800
X311000Y16800
X321000Y16800
X321000Y26800
X331000Y26800
X331000Y16800
X341000Y16800
X341000Y26800
X351000Y26800
X351000Y16800
X361000Y16800
X361000Y26800
X361000Y36800
X361000Y46800
X351000Y46800
X351000Y36800
X381000Y36800
X381000Y46800
X391000Y46800
X391000Y36800
X391000Y26800
X391000Y16800
X381000Y16800
X381000Y26800
X186000Y96800
X171000Y96800
X171000Y106800
X171000Y116800
X161000Y116800
X161000Y106800
X161000Y96800
X161000Y86800
X161000Y76800
X161000Y66800
X161000Y56800
X161000Y46800
X161000Y36800
X161000Y26800
X161000Y16800
X171000Y16800
X171000Y26800
X171000Y36800
X171000Y46800
X171000Y56800
X171000Y66800
X171000Y76800
X171000Y86800
X146000Y86800
X131500Y103300
X131500Y113300
X131500Y123300
X131500Y133300
X131500Y143300
X131500Y153300
X131500Y163300
X96500Y158800
X96500Y148800
X96500Y138800
X96500Y128800
X96500Y118800
X96500Y108800
X76500Y178800
X76500Y188800
X106500Y268800
X116500Y268800
X126500Y268800
X136500Y268800
X176000Y256800
X176000Y246800
X176000Y236800
X176000Y226800
X176000Y216800
X146000Y36800
T07
X75000Y262520
X75000Y290080
T08
X76000Y316800
X76000Y382800
X446000Y382800
X446000Y316800
M30
